<svg width="60" height="46" viewBox="0 0 60 46" fill="none" xmlns="http://www.w3.org/2000/svg">
<g clip-path="url(#clip0_61_5)">
<path d="M51.6319 26.1012C49.5399 26.1121 47.7217 26.616 46.1993 27.3608C45.6407 26.2545 45.0821 25.2688 44.9835 24.5459C44.874 23.7025 44.7425 23.1877 44.874 22.1801C45.0054 21.1724 45.5969 19.7376 45.5859 19.628C45.575 19.5185 45.4545 19.0037 44.2497 18.9928C43.0448 18.9818 42.0043 19.2228 41.8838 19.5404C41.7634 19.858 41.5333 20.5809 41.38 21.3257C41.1719 22.421 38.9704 26.3312 37.7108 28.3794C37.3055 27.5798 36.955 26.8788 36.8784 26.3203C36.7688 25.4769 36.6374 24.9621 36.7688 23.9544C36.9003 22.9468 37.4917 21.5119 37.4808 21.4024C37.4698 21.2929 37.3493 20.7781 36.1445 20.7671C34.9397 20.7562 33.8992 20.9971 33.7787 21.3148C33.6582 21.6324 33.5268 22.3772 33.2749 23.1001C33.0229 23.823 30.0985 30.3509 29.3318 32.0377C28.9375 32.9029 28.598 33.593 28.357 34.064C28.357 34.064 28.3461 34.0968 28.3132 34.1516C28.1051 34.5568 27.9846 34.7759 27.9846 34.7759C27.9846 34.7759 27.9846 34.7759 27.9846 34.7868C27.8203 35.0826 27.6451 35.3564 27.5574 35.3564C27.4917 35.3564 27.3712 34.5678 27.5794 33.4944C28.0175 31.2271 29.058 27.7003 29.047 27.5798C29.047 27.5141 29.2442 26.9008 28.368 26.5831C27.5136 26.2655 27.207 26.7912 27.1303 26.7912C27.0536 26.7912 26.9988 26.9774 26.9988 26.9774C26.9988 26.9774 27.9517 23.0125 25.1807 23.0125C23.4501 23.0125 21.0624 24.9073 19.8795 26.616C19.1347 27.0212 17.5465 27.8865 15.8488 28.8175C15.2026 29.179 14.5344 29.5404 13.9101 29.8799C13.8663 29.8361 13.8225 29.7814 13.7787 29.7376C10.4271 26.156 4.22776 23.6258 4.49063 18.8175C4.58921 17.065 5.19162 12.4648 16.3964 6.87885C25.6188 2.33339 32.9572 3.59298 34.2278 6.38597C36.0459 10.3728 30.2957 17.777 20.7666 18.8504C17.1303 19.2556 15.2245 17.8537 14.7425 17.3279C14.2387 16.7803 14.162 16.7474 13.9758 16.8569C13.6692 17.0212 13.8663 17.5141 13.9758 17.7989C14.2606 18.5437 15.4326 19.858 17.4151 20.5043C19.1675 21.0738 23.4282 21.3914 28.587 19.398C34.3592 17.1636 38.8718 10.9533 37.5465 5.7507C36.2212 0.471398 27.4589 -1.27011 19.1675 1.67622C14.2387 3.42868 8.8937 6.18881 5.04923 9.78137C0.481869 14.053 -0.241022 17.766 0.0547066 19.3213C1.11714 24.8416 8.72941 28.4342 11.7743 31.0957C11.621 31.1833 11.4786 31.26 11.3581 31.3257C9.83565 32.0815 4.03061 35.1154 2.58483 38.3246C0.941892 41.961 2.8477 44.5678 4.10728 44.9183C8.01747 46.0026 12.0372 44.053 14.1949 40.8328C16.3526 37.6127 16.0898 33.4287 15.093 31.5119C15.0821 31.49 15.0711 31.4681 15.0492 31.4462C15.4435 31.2162 15.8488 30.9752 16.2431 30.7452C17.0208 30.2852 17.7875 29.858 18.4446 29.5075C18.0722 30.5262 17.7984 31.7419 17.667 33.4944C17.5027 35.5535 18.3461 38.2261 19.4523 39.2775C19.9452 39.7376 20.5257 39.7485 20.8981 39.7485C22.1905 39.7485 22.771 38.6751 23.4172 37.4046C24.2059 35.8493 24.9178 34.042 24.9178 34.042C24.9178 34.042 24.0306 38.927 26.4402 38.927C27.3165 38.927 28.2037 37.7879 28.598 37.2074C28.598 37.2184 28.598 37.2184 28.598 37.2184C28.598 37.2184 28.6199 37.1855 28.6637 37.1089C28.7513 36.9665 28.8061 36.8788 28.8061 36.8788C28.8061 36.8788 28.8061 36.8679 28.8061 36.8569C29.1566 36.2436 29.9452 34.8526 31.1171 32.5415C32.6286 29.5623 34.0854 25.8383 34.0854 25.8383C34.0854 25.8383 34.2168 26.7474 34.6659 28.2589C34.9287 29.1461 35.4764 30.1209 35.9145 31.0629C35.564 31.5557 35.345 31.8296 35.345 31.8296C35.345 31.8296 35.345 31.8296 35.3559 31.8405C35.0711 32.2129 34.7645 32.6182 34.4249 33.0125C33.231 34.4364 31.8072 36.0683 31.61 36.5393C31.38 37.0979 31.4348 37.5032 31.8729 37.8318C32.1905 38.0727 32.7601 38.1056 33.3406 38.0727C34.414 37.996 35.1697 37.7332 35.5421 37.5689C36.1226 37.3608 36.8017 37.0431 37.437 36.5722C38.6089 35.7069 39.3209 34.4692 39.2551 32.8372C39.2223 31.9391 38.9266 31.0409 38.5651 30.1976C38.6746 30.0442 38.7732 29.8909 38.8827 29.7376C40.7338 27.0322 42.1686 24.064 42.1686 24.064C42.1686 24.064 42.3001 24.973 42.7491 26.4845C42.9682 27.2512 43.4172 28.0837 43.8116 28.8942C42.07 30.3071 40.9967 31.95 40.6133 33.0234C39.9233 35.0169 40.46 35.915 41.4786 36.1231C41.9386 36.2217 42.5958 36.0026 43.0777 35.7945C43.6911 35.5974 44.414 35.2578 45.104 34.754C46.276 33.8887 47.4041 32.6839 47.3384 31.0519C47.3055 30.3071 47.1084 29.5733 46.8346 28.8613C48.3132 28.248 50.219 27.9084 52.6505 28.1932C57.8641 28.8066 58.8937 32.0596 58.6966 33.4287C58.4994 34.7978 57.4041 35.5426 57.0427 35.7726C56.6812 36.0026 56.5607 36.0793 56.5936 36.2436C56.6374 36.4845 56.8127 36.4736 57.1193 36.4298C57.5465 36.3531 59.8576 35.3235 59.9561 32.8044C60.1204 29.5842 57.0536 26.0683 51.6319 26.1012ZM11.4129 39.6609C9.68231 41.5448 7.27267 42.2567 6.23214 41.6543C5.11495 41.0081 5.55306 38.2261 7.67793 36.2326C8.97037 35.0169 10.6352 33.8887 11.7415 33.1987C11.9934 33.0453 12.3658 32.8263 12.8148 32.5524C12.8915 32.5086 12.9353 32.4867 12.9353 32.4867C13.0229 32.432 13.1106 32.3772 13.1982 32.3224C13.9758 35.1702 13.231 37.6784 11.4129 39.6609ZM24.0087 31.0957C23.4063 32.5634 22.1467 36.3202 21.38 36.1121C20.7228 35.9369 20.3176 33.0891 21.2486 30.2742C21.7195 28.8613 22.7163 27.1746 23.2968 26.5174C24.2387 25.4659 25.2792 25.1154 25.5312 25.5426C25.8488 26.1012 24.3811 30.1757 24.0087 31.0957ZM34.403 36.0683C34.1511 36.1998 33.9101 36.2874 33.8006 36.2217C33.7239 36.1779 33.9101 36.0026 33.9101 36.0026C33.9101 36.0026 35.2135 34.6006 35.7283 33.9654C36.024 33.593 36.3745 33.1549 36.7469 32.662C36.7469 32.7058 36.7469 32.7606 36.7469 32.8044C36.7469 34.4802 35.1259 35.6083 34.403 36.0683ZM42.4205 34.2392C42.2343 34.1078 42.2672 33.6696 42.8915 32.3005C43.1325 31.7638 43.702 30.8657 44.6768 30.0004C44.7864 30.3509 44.863 30.6905 44.8521 31.0081C44.8411 33.122 43.3296 33.9106 42.4205 34.2392Z" fill="#CD6799"/>
</g>
<defs>
<clipPath id="clip0_61_5">
<rect width="60" height="44.9726" fill="white" transform="translate(0 0.252258)"/>
</clipPath>
</defs>
</svg>
