<svg width="50" height="52" viewBox="0 0 50 52" fill="none" xmlns="http://www.w3.org/2000/svg">
<g clip-path="url(#clip0_76_5)">
<path d="M37.4019 37.5201C37.7297 34.789 37.6314 34.3885 39.6657 34.8309L40.1822 34.8763C41.7464 34.9474 43.7926 34.6247 44.9947 34.0662C47.5825 32.8655 49.1169 30.8607 46.5653 31.3875C40.7448 32.5882 40.3447 30.6173 40.3447 30.6173C46.4908 21.4981 49.06 9.92214 46.8423 7.08858C40.7935 -0.640363 30.3233 3.01448 30.1481 3.10937L30.0923 3.11967C28.9423 2.88105 27.6552 2.73848 26.2094 2.7151C23.5754 2.67182 21.5768 3.40562 20.0607 4.55554C20.0607 4.55554 1.38231 -3.13972 2.25127 14.2331C2.43608 17.9288 7.54866 42.1979 13.6464 34.8675C15.8751 32.187 18.0289 29.9206 18.0289 29.9206C19.0984 30.6311 20.3788 30.9936 21.7218 30.8634L21.8256 30.7748C21.7931 31.1077 21.8074 31.4332 21.8671 31.8185C20.2966 33.5737 20.7581 33.8819 17.6175 34.5283C14.4401 35.1831 16.3068 36.349 17.5253 36.6537C19.0028 37.0232 22.4209 37.5466 24.731 34.3134L24.639 34.6823C25.2552 35.1753 25.2136 38.2256 25.301 40.405C25.3884 42.5845 25.5344 44.6183 25.9786 45.8174C26.4229 47.0163 26.9471 50.1049 31.0745 49.2203C34.5241 48.4811 37.1615 47.4172 37.4019 37.5201Z" fill="black" stroke="black" stroke-width="4.32745"/>
<path d="M46.5659 31.3872C40.7448 32.588 40.3447 30.6171 40.3447 30.6171C46.4908 21.4973 49.06 9.92108 46.8428 7.08786C40.794 -0.640612 30.3233 3.01446 30.1486 3.10935L30.0923 3.11942C28.9423 2.88069 27.6552 2.73846 26.2087 2.71486C23.5747 2.67169 21.5768 3.40537 20.0607 4.55506C20.0607 4.55506 1.38198 -3.13985 2.2507 14.2329C2.43551 17.9288 7.54798 42.1978 13.6459 34.8674C15.8747 32.187 18.0282 29.9206 18.0282 29.9206C19.0978 30.6311 20.3783 30.9935 21.7207 30.8634L21.8249 30.7748C21.7925 31.1076 21.8073 31.4332 21.8667 31.8185C20.2958 33.5737 20.7574 33.8818 17.617 34.5283C14.4394 35.1831 16.3061 36.349 17.5249 36.6537C19.0025 37.0232 22.4208 37.5466 24.7305 34.3134L24.6383 34.6823C25.2539 35.1753 25.6861 37.8891 25.6136 40.3491C25.5412 42.8092 25.4928 44.4982 25.9778 45.8174C26.4628 47.1366 26.9462 50.1049 31.0744 49.2203C34.524 48.4811 36.3115 46.5654 36.5602 43.37C36.7367 41.0983 37.1361 41.4341 37.1613 39.403L37.4816 38.4415C37.851 35.362 37.5403 34.3686 39.6655 34.8306L40.182 34.876C41.7462 34.9472 43.7934 34.6244 44.995 34.066C47.5823 32.8652 49.1167 30.8605 46.5656 31.3872H46.5659Z" fill="#336791"/>
<path d="M24.9804 33.1524C24.8201 38.8825 25.0207 44.6525 25.5813 46.0548C26.1424 47.4571 27.343 50.1847 31.4716 49.3002C34.9208 48.5608 36.1758 47.1298 36.7204 43.9711C37.1215 41.6472 37.8947 35.1932 37.9939 33.8708" stroke="white" stroke-width="1.44248" stroke-linecap="round" stroke-linejoin="round"/>
<path d="M20.0319 4.42706C20.0319 4.42706 1.34042 -3.21243 2.20938 14.1603C2.39419 17.8562 7.507 42.1261 13.6048 34.7953C15.8332 32.1145 17.8485 30.012 17.8485 30.012" stroke="white" stroke-width="1.44248" stroke-linecap="round" stroke-linejoin="round"/>
<path d="M30.128 3.03275C29.481 3.23561 40.5254 -1.00466 46.802 7.01555C49.0192 9.84888 46.4499 21.4251 40.3039 30.5451" stroke="white" stroke-width="1.44248" stroke-linecap="round" stroke-linejoin="round"/>
<path d="M40.3038 30.5451C40.3038 30.5451 40.7043 32.5166 46.5255 31.315C49.076 30.7883 47.541 32.7933 44.9543 33.9946C42.8314 34.9798 38.0719 35.2323 37.9941 33.8709C37.794 30.3581 40.499 31.4253 40.3038 30.5451ZM40.3038 30.5451C40.1273 29.7524 38.9177 28.9744 38.1175 27.0344C37.4189 25.341 28.5362 12.3552 40.5808 14.2838C41.0221 14.1925 37.4395 2.82712 26.1673 2.64231C14.8978 2.4575 15.2675 16.5014 15.2675 16.5014" stroke="white" stroke-width="1.44248" stroke-linecap="round" stroke-linejoin="bevel"/>
<path d="M21.8256 31.7464C20.2544 33.5015 20.7165 33.8096 17.576 34.4563C14.3983 35.1113 16.2653 36.2769 17.4837 36.5815C18.9613 36.9513 22.3796 37.4747 24.6893 34.2406C25.3926 33.2559 24.6851 31.6848 23.7189 31.2842C23.2521 31.0909 22.6279 30.8486 21.8256 31.7464Z" stroke="white" stroke-width="1.44248" stroke-linecap="round" stroke-linejoin="round"/>
<path d="M21.7227 31.7157C21.5644 30.6838 22.0618 29.4559 22.5948 28.0194C23.3959 25.8639 25.244 23.7081 23.7656 16.8708C22.6636 11.7757 15.2721 15.8105 15.2674 16.5013C15.2629 17.192 15.6018 20.0031 15.144 23.2766C14.5466 27.5483 17.862 31.161 21.6798 30.7914" stroke="white" stroke-width="1.44248" stroke-linecap="round" stroke-linejoin="round"/>
<path d="M19.964 16.3978C19.9307 16.6337 20.396 17.2634 21.0027 17.3475C21.6084 17.432 22.1269 16.9399 22.1597 16.7042C22.1926 16.4683 21.7279 16.2084 21.1209 16.1239C20.5149 16.0393 19.9962 16.1624 19.9641 16.3978H19.964Z" fill="white" stroke="white" stroke-width="0.480824"/>
<path d="M38.4128 15.9167C38.4457 16.1527 37.9809 16.7823 37.3741 16.8665C36.7679 16.9509 36.2495 16.4589 36.2163 16.2232C36.1842 15.9872 36.6491 15.7273 37.2554 15.6428C37.8616 15.5583 38.3799 15.6813 38.4128 15.9168V15.9167Z" fill="white" stroke="white" stroke-width="0.240412"/>
<path d="M40.5809 14.2838C40.6808 16.1346 40.1822 17.3953 40.1194 19.3656C40.0263 22.2294 41.4848 25.5074 39.2872 28.7894" stroke="white" stroke-width="1.44248" stroke-linecap="round" stroke-linejoin="round"/>
</g>
<defs>
<clipPath id="clip0_76_5">
<rect width="50" height="51.5405" fill="white"/>
</clipPath>
</defs>
</svg>
