<svg width="45" height="45" viewBox="0 0 45 45" fill="none" xmlns="http://www.w3.org/2000/svg">
<path d="M8.32508 41.8575C26.0851 44.7694 40.697 40.545 36.0901 38.445C36.0901 38.445 37.3482 39.4931 34.7063 40.3031C29.6795 41.8444 13.7813 42.3075 9.36758 40.365C7.78133 39.6656 10.7588 38.6962 11.6926 38.4937C12.6695 38.28 13.2282 38.3194 13.2282 38.3194C11.4582 37.0612 1.81133 40.7887 8.32508 41.8575Z" fill="#4E7D9D"/>
<path d="M38.9062 40.7363C38.9062 40.7363 38.3455 42.1894 32.2837 43.3444C25.4474 44.6457 17.0099 44.4938 12.0093 43.6594C12.0093 43.6575 13.0349 44.5163 18.2999 44.8575C26.3118 45.3769 38.6155 44.5706 38.9062 40.7363ZM28.4905 31.0294C23.3418 32.0325 20.368 31.9988 16.6012 31.6069C13.6912 31.3013 15.5962 29.8744 15.5962 29.8744C8.06053 32.4019 19.7905 35.2725 30.3187 32.1581C29.2012 31.7588 28.4905 31.0294 28.4905 31.0294ZM31.9837 32.97C31.9462 33.075 31.8168 33.1894 31.8168 33.1913C42.9655 30.2269 38.8668 22.7419 33.5362 24.6375C33.0674 24.8063 32.8218 25.1944 32.8218 25.1944C32.8218 25.1944 33.118 25.0744 33.7762 24.9357C36.4724 24.3657 40.3312 28.5825 31.9837 32.97Z" fill="#4E7D9D"/>
<path d="M17.3306 14.3006C15.2569 17.4525 18.3506 20.8369 22.5656 24.6863C20.9213 20.9288 15.345 17.6381 22.5675 11.8687C31.575 4.67625 26.9513 0 26.9513 0C28.8188 7.42875 20.3775 9.67125 17.3306 14.3006Z" fill="#F2941B"/>
<path d="M32.5256 9.19122C32.5256 9.19122 17.295 13.0369 24.57 21.5156C26.7169 24.015 24.0056 26.265 24.0056 26.265C24.0056 26.265 29.4544 23.4187 26.9513 19.8562C24.6131 16.5337 22.8206 14.8837 32.5256 9.19122Z" fill="#F2941B"/>
<path d="M16.6633 34.8C9.82327 36.7331 20.8239 40.7288 29.5352 36.9544C28.1101 36.3919 27.0864 35.7431 27.0864 35.7431C23.2033 36.4894 21.4014 36.5475 17.8745 36.1388C14.9627 35.8013 16.6633 34.8 16.6633 34.8ZM29.9851 27.5063C30.8401 26.9156 32.0214 26.4056 32.0214 26.4056C32.0214 26.4056 28.6614 27.015 25.3145 27.3C21.2195 27.6469 16.8226 27.7144 14.6176 27.4163C9.3939 26.7113 17.4808 24.7688 17.4808 24.7688C17.4808 24.7688 14.3402 24.555 10.4814 26.4413C5.91202 28.6744 21.7764 29.6906 29.9851 27.5063Z" fill="#4E7D9D"/>
</svg>
