<svg width="46" height="46" viewBox="0 0 46 46" fill="none" xmlns="http://www.w3.org/2000/svg">
<g clip-path="url(#clip0_10_55)">
<path d="M0.5 23V0.5H45.5V45.5H0.5" fill="#007ACC"/>
<path d="M10.3662 23.0788V24.9125H16.2162V41.5625H20.3675V24.9125H26.2175V23.1125C26.2175 22.1 26.2175 21.2788 26.1725 21.2563C26.1725 21.2225 22.6062 21.2113 18.275 21.2113L10.4 21.245V23.09L10.3662 23.0788ZM36.6575 21.2C37.805 21.47 38.6825 21.9875 39.47 22.8088C39.8862 23.2588 40.505 24.0463 40.55 24.2488C40.55 24.3163 38.6037 25.6325 37.4225 26.3638C37.3775 26.3975 37.1975 26.2063 37.0175 25.9138C36.4325 25.0813 35.8362 24.7213 34.9025 24.6538C33.5525 24.5638 32.6525 25.2725 32.6525 26.4538C32.6525 26.8138 32.72 27.0163 32.855 27.3088C33.1587 27.9275 33.7212 28.2988 35.465 29.0638C38.6825 30.4475 40.0775 31.3588 40.9212 32.6638C41.8775 34.1263 42.0912 36.4213 41.45 38.1425C40.73 40.0213 38.975 41.2925 36.4662 41.7088C35.6787 41.8438 33.8787 41.8213 33.035 41.675C31.235 41.3375 29.5137 40.4375 28.4562 39.2788C28.04 38.8288 27.2412 37.625 27.2862 37.5463L27.7137 37.2763L29.4012 36.2975L30.6725 35.555L30.965 35.9488C31.3362 36.5338 32.1687 37.3213 32.6525 37.5913C34.115 38.345 36.0725 38.2438 37.04 37.3663C37.4562 36.9838 37.6362 36.5788 37.6362 36.0163C37.6362 35.4988 37.5575 35.2625 37.2987 34.8688C36.9387 34.3738 36.2187 33.9688 34.1937 33.0688C31.865 32.0788 30.875 31.4488 29.9525 30.4813C29.4237 29.8963 28.94 28.985 28.715 28.2313C28.5462 27.5788 28.49 25.9813 28.6475 25.34C29.1312 23.09 30.83 21.515 33.26 21.065C34.0475 20.9075 35.9037 20.975 36.68 21.1775L36.6575 21.2Z" fill="white"/>
</g>
<defs>
<clipPath id="clip0_10_55">
<rect width="45" height="45" fill="white" transform="translate(0.5 0.5)"/>
</clipPath>
</defs>
</svg>
