<svg width="50" height="50" viewBox="0 0 50 50" fill="none" xmlns="http://www.w3.org/2000/svg">
<path d="M24.8035 2.43869C13.3796 2.43869 14.0929 7.39274 14.0929 7.39274L14.1056 12.5253H25.0072V14.0662H9.77568C9.77568 14.0662 2.46558 13.2372 2.46558 24.7637C2.46558 36.2906 8.84602 35.8818 8.84602 35.8818H12.6538V30.5329C12.6538 30.5329 12.4486 24.1524 18.9324 24.1524H29.7448C29.7448 24.1524 35.8195 24.2506 35.8195 18.2814V8.41174C35.8195 8.41174 36.7422 2.43869 24.8035 2.43869ZM18.7923 5.89022C19.05 5.88999 19.3051 5.94056 19.5431 6.03904C19.7812 6.13751 19.9975 6.28196 20.1796 6.46412C20.3618 6.64628 20.5062 6.86257 20.6047 7.10062C20.7032 7.33866 20.7538 7.59379 20.7535 7.8514C20.7538 8.10901 20.7032 8.36414 20.6047 8.60219C20.5062 8.84023 20.3618 9.05653 20.1796 9.23868C19.9975 9.42084 19.7812 9.56529 19.5431 9.66377C19.3051 9.76225 19.05 9.81281 18.7923 9.81258C18.5347 9.81281 18.2796 9.76225 18.0416 9.66377C17.8035 9.56529 17.5872 9.42084 17.4051 9.23868C17.2229 9.05653 17.0785 8.84023 16.98 8.60219C16.8815 8.36414 16.8309 8.10901 16.8312 7.8514C16.8309 7.59379 16.8815 7.33866 16.98 7.10062C17.0785 6.86257 17.2229 6.64628 17.4051 6.46412C17.5872 6.28196 17.8035 6.13751 18.0416 6.03904C18.2796 5.94056 18.5347 5.88999 18.7923 5.89022Z" fill="url(#paint0_linear_10_81)"/>
<path d="M25.1279 47.2047C36.5517 47.2047 35.8384 42.2506 35.8384 42.2506L35.8257 37.1183H24.924V35.5773H40.1555C40.1555 35.5773 47.4656 36.4064 47.4656 24.8795C47.4656 13.3528 41.0851 13.7616 41.0851 13.7616H37.2773V19.1103C37.2773 19.1103 37.4826 25.4907 30.9987 25.4907H20.1863C20.1863 25.4907 14.1116 25.3926 14.1116 31.362V41.2318C14.1116 41.2318 13.1892 47.2047 25.1277 47.2047H25.1279ZM31.139 43.7535C30.8814 43.7537 30.6262 43.7032 30.3882 43.6047C30.1502 43.5062 29.9339 43.3618 29.7517 43.1796C29.5695 42.9974 29.4251 42.7812 29.3266 42.5431C29.2281 42.3051 29.1776 42.0499 29.1778 41.7923C29.1776 41.5347 29.2281 41.2795 29.3266 41.0415C29.425 40.8034 29.5695 40.5871 29.7516 40.4049C29.9338 40.2227 30.1501 40.0783 30.3882 39.9798C30.6262 39.8813 30.8814 39.8307 31.139 39.831C31.3966 39.8307 31.6517 39.8813 31.8898 39.9798C32.1278 40.0783 32.3441 40.2227 32.5263 40.4049C32.7084 40.587 32.8529 40.8033 32.9514 41.0414C33.0498 41.2794 33.1004 41.5345 33.1002 41.7921C33.1004 42.0498 33.0498 42.3049 32.9514 42.5429C32.8529 42.781 32.7084 42.9973 32.5263 43.1794C32.3441 43.3616 32.1278 43.506 31.8898 43.6045C31.6517 43.703 31.3966 43.7537 31.139 43.7535Z" fill="url(#paint1_linear_10_81)"/>
<defs>
<linearGradient id="paint0_linear_10_81" x1="434.914" y1="405.082" x2="2664.98" y2="2612.9" gradientUnits="userSpaceOnUse">
<stop stop-color="#387EB8"/>
<stop offset="1" stop-color="#366994"/>
</linearGradient>
<linearGradient id="paint1_linear_10_81" x1="652.406" y1="702.023" x2="3047.24" y2="2965.93" gradientUnits="userSpaceOnUse">
<stop stop-color="#FFE052"/>
<stop offset="1" stop-color="#FFC331"/>
</linearGradient>
</defs>
</svg>
