<svg width="61" height="36" viewBox="0 0 61 36" fill="none" xmlns="http://www.w3.org/2000/svg">
<path d="M30.02 1.79358C22.8149 1.79358 18.312 5.39508 16.5106 12.5974C19.2128 8.9959 22.3649 7.64585 25.9671 8.54589C28.0226 9.05942 29.4916 10.5507 31.118 12.2008C33.7667 14.8887 36.8324 17.9997 43.5293 17.9997C50.7337 17.9997 55.2372 14.3982 57.038 7.19515C54.3365 10.7967 51.1844 12.1474 47.5815 11.2473C45.5267 10.7338 44.0577 9.24254 42.4313 7.59247C39.7825 4.90452 36.7162 1.79358 30.02 1.79358ZM16.5106 17.9997C9.30627 17.9997 4.8027 21.6012 3.00195 28.8042C5.70342 25.2027 8.85558 23.8519 12.4584 24.7526C14.5132 25.2668 15.9822 26.7574 17.6086 28.4068C20.2574 31.0948 23.3237 34.2064 30.02 34.2064C37.225 34.2064 41.7279 30.6049 43.5293 23.4019C40.8272 27.0034 37.675 28.3541 34.0728 27.4534C32.0173 26.9406 30.5484 25.4486 28.9219 23.7992C26.2732 21.1113 23.2075 17.9997 16.5106 17.9997Z" fill="#06B6D4"/>
</svg>
