<svg width="51" height="46" viewBox="0 0 51 46" fill="none" xmlns="http://www.w3.org/2000/svg">
<g clip-path="url(#clip0_26_2)">
<path d="M25.5 27.6883C27.9613 27.6883 29.9566 25.693 29.9566 23.2317C29.9566 20.7705 27.9613 18.7752 25.5 18.7752C23.0388 18.7752 21.0435 20.7705 21.0435 23.2317C21.0435 25.693 23.0388 27.6883 25.5 27.6883Z" fill="#61DAFB"/>
<path d="M25.5 32.3622C38.7068 32.3622 49.413 28.2743 49.413 23.2317C49.413 18.1891 38.7068 14.1013 25.5 14.1013C12.2932 14.1013 1.58694 18.1891 1.58694 23.2317C1.58694 28.2743 12.2932 32.3622 25.5 32.3622Z" stroke="#61DAFB" stroke-width="2.17391"/>
<path d="M17.5928 27.797C24.1962 39.2344 33.0895 46.4623 37.4565 43.941C41.8235 41.4197 40.0106 30.104 33.4072 18.6665C26.8038 7.22909 17.9105 0.00113797 13.5435 2.52244C9.17645 5.04374 10.9894 16.3595 17.5928 27.797Z" stroke="#61DAFB" stroke-width="2.17391"/>
<path d="M17.5928 18.6665C10.9894 30.104 9.17646 41.4197 13.5435 43.941C17.9105 46.4623 26.8038 39.2344 33.4072 27.797C40.0106 16.3595 41.8235 5.04374 37.4565 2.52244C33.0895 0.00113773 24.1962 7.22909 17.5928 18.6665Z" stroke="#61DAFB" stroke-width="2.17391"/>
</g>
<defs>
<clipPath id="clip0_26_2">
<rect width="50" height="44.4858" fill="white" transform="translate(0.5 0.988827)"/>
</clipPath>
</defs>
</svg>
